<?xml version="1.0"?>
<svg version="1.1" xmlns="http://www.w3.org/2000/svg" width="172px" height="40px" style=""><path fill="#acc732" d="M63.412,32.448c0,0.504-0.252,0.672-0.672,0.672l-9.968,0c-0.504,0-0.728-0.168-0.728-0.784l0-17.892c0-0.448,0.224-0.7,0.672-0.7l2.24,0c0.504,0,0.7,0.196,0.7,0.728l0,15.652l7.084,0c0.476,0,0.672,0.224,0.672,0.644l0,1.68z M71.014,15.984c0,1.092-0.952,1.764-1.876,1.764s-1.904-0.616-1.904-1.736s0.924-1.792,1.904-1.792c0.952,0,1.876,0.644,1.876,1.764z M70.846,32.42c0,0.504-0.224,0.7-0.7,0.7l-1.96,0c-0.504,0-0.728-0.196-0.728-0.7l0-12.236c0-0.476,0.28-0.644,0.728-0.644l1.96,0c0.448,0,0.7,0.14,0.7,0.644l0,12.236z M89.396,32.588c0,0.336-0.224,0.532-0.56,0.532l-1.344,0c-1.456,0-2.1-0.7-2.296-1.652l-0.056,0c-0.7,1.036-2.52,1.988-4.06,1.988c-3.948,0-5.74-3.248-5.74-6.888c0-4.844,2.912-7.392,6.048-7.392c1.484,0,2.884,0.672,3.584,1.624l0.056-0.756c0.028-0.308,0.252-0.504,0.588-0.504l1.96,0c0.364,0,0.588,0.196,0.588,0.616l0,9.716c0,0.392,0.056,0.672,0.168,0.812c0.084,0.084,0.196,0.112,0.336,0.112l0.224,0c0.336,0,0.504,0.112,0.504,0.476l0,1.316z M84.776,28.78l0-5.404c-0.56-0.812-1.708-1.428-2.772-1.428c-1.708,0-3.164,1.456-3.164,4.396c0,2.352,0.896,4.34,2.968,4.34c1.372,0,2.548-1.036,2.968-1.904z M110.984,29.116c0,2.94-2.548,4.34-5.404,4.34c-1.456,0-3.052-0.42-4.312-0.98c-0.252-0.112-0.336-0.28-0.336-0.448c0-0.084,0.028-0.168,0.056-0.252l0.448-1.428c0.084-0.28,0.224-0.392,0.392-0.392c0.084,0,0.168,0,0.308,0.056c1.232,0.504,2.548,0.868,3.528,0.868c1.232,0,2.072-0.56,2.072-1.484c0-0.784-0.532-1.204-1.68-1.652l-2.212-0.84c-1.596-0.588-2.884-1.82-2.884-3.724c0-2.744,2.576-4.004,5.068-4.004c1.344,0,2.66,0.224,4.06,0.84c0.224,0.112,0.336,0.224,0.336,0.392c0,0.084-0.028,0.168-0.056,0.28l-0.476,1.512c-0.056,0.196-0.196,0.308-0.392,0.308c-0.084,0-0.196-0.028-0.28-0.056c-0.924-0.364-2.128-0.672-3.024-0.672c-1.176,0-1.764,0.644-1.764,1.288c0,0.616,0.308,1.008,1.372,1.428l2.52,1.036c1.484,0.616,2.66,1.764,2.66,3.584z M127.35,32.56c0,0.42-0.084,0.56-0.448,0.56l-2.464,0c-0.392,0-0.476-0.112-0.476-0.56l0-7.784c0-1.512-0.42-2.632-2.1-2.632c-1.092,0-2.492,0.588-3.36,1.344l0,9.072c0,0.42-0.112,0.56-0.532,0.56l-2.408,0c-0.336,0-0.448-0.14-0.448-0.504l0-18.508c0-0.504,0.224-0.644,0.616-0.7l1.932-0.252c0.112-0.028,0.252-0.028,0.364-0.028c0.308,0,0.476,0.14,0.476,0.532l0,7.028c1.176-0.98,2.94-1.512,4.424-1.512c3.136,0,4.424,1.988,4.424,5.012l0,8.372z M145.228,26.316c0,4.032-2.464,7.14-6.832,7.14c-4.564,0-6.664-3.08-6.664-7.168c0-4.032,2.464-7.112,6.832-7.112c4.564,0,6.664,3.024,6.664,7.14z M141.728,26.316c0-2.296-0.728-4.48-3.192-4.48c-2.492,0-3.304,2.156-3.304,4.396c0,2.296,0.7,4.564,3.192,4.564c2.464,0,3.304-2.184,3.304-4.48z M162.49,26.148c0,2.128-0.644,4.06-1.82,5.432c-1.036,1.176-2.492,1.904-4.312,1.904c-1.288,0-2.576-0.476-3.388-1.316l0,6.272c0,0.56-0.252,0.728-0.728,0.728l-1.96,0c-0.448,0-0.672-0.252-0.672-0.728l0-18.256c0-0.476,0.224-0.644,0.672-0.644l1.68,0c0.476,0,0.728,0.112,0.756,0.532l0.028,0.756c0.812-0.924,2.408-1.624,3.92-1.624c1.848,0,3.136,0.7,4.06,1.708c1.204,1.316,1.764,3.276,1.764,5.236z M158.962,26.316c0-1.316-0.252-2.464-0.812-3.248c-0.532-0.756-1.316-1.148-2.296-1.148c-1.036,0-2.324,0.672-2.884,1.372l0,6.104c0.56,0.756,1.68,1.372,2.744,1.372c0.98,0,1.764-0.448,2.24-1.036c0.7-0.868,1.008-2.044,1.008-3.416z"/><path fill="#" d=""/></svg>
